<svg width="117" height="48" viewBox="0 0 117 48" fill="none" xmlns="http://www.w3.org/2000/svg">
<path d="M60.86 4.45459H63.5348L68.1855 15.7614H68.3567L73.0074 4.45459H75.6823V19H73.5852V8.47448H73.4497L69.1413 18.9787H67.4009L63.0926 8.46737H62.957V19H60.86V4.45459Z" fill="#69BDFF"/>
<path d="M83.3306 19.2202C82.3035 19.2202 81.4071 18.9858 80.6415 18.5171C79.8759 18.0483 79.2815 17.3926 78.8582 16.5498C78.435 15.707 78.2234 14.7221 78.2234 13.5952C78.2234 12.4636 78.435 11.474 78.8582 10.6265C79.2815 9.77893 79.8759 9.12078 80.6415 8.65203C81.4071 8.18328 82.3035 7.94891 83.3306 7.94891C84.3577 7.94891 85.2541 8.18328 86.0197 8.65203C86.7853 9.12078 87.3797 9.77893 87.803 10.6265C88.2262 11.474 88.4378 12.4636 88.4378 13.5952C88.4378 14.7221 88.2262 15.707 87.803 16.5498C87.3797 17.3926 86.7853 18.0483 86.0197 18.5171C85.2541 18.9858 84.3577 19.2202 83.3306 19.2202ZM83.3377 17.4375C84.0035 17.4375 84.5551 17.2624 84.9926 16.912C85.4301 16.5616 85.7534 16.0952 85.9627 15.5128C86.1767 14.9304 86.2836 14.2889 86.2836 13.5881C86.2836 12.8921 86.1767 12.2529 85.9627 11.6705C85.7534 11.0834 85.4301 10.6123 84.9926 10.2571C84.5551 9.90203 84.0035 9.72448 83.3377 9.72448C82.6672 9.72448 82.1109 9.90203 81.6686 10.2571C81.2311 10.6123 80.9054 11.0834 80.6914 11.6705C80.4822 12.2529 80.3775 12.8921 80.3775 13.5881C80.3775 14.2889 80.4822 14.9304 80.6914 15.5128C80.9054 16.0952 81.2311 16.5616 81.6686 16.912C82.1109 17.2624 82.6672 17.4375 83.3377 17.4375Z" fill="#69BDFF"/>
<path d="M91.7939 23.091C91.4753 23.091 91.1852 23.0649 90.9236 23.0128C90.6621 22.9655 90.4671 22.9134 90.3387 22.8566L90.8523 21.1165C91.2423 21.2207 91.5894 21.2657 91.8937 21.2515C92.1981 21.2373 92.4667 21.1236 92.6998 20.9106C92.9375 20.6975 93.1468 20.3495 93.3275 19.8665L93.5914 19.1421L89.5826 8.09095H91.8652L94.6399 16.5569H94.7541L97.5288 8.09095H99.8185L95.3033 20.456C95.0941 21.0242 94.8278 21.5048 94.5044 21.8978C94.181 22.2955 93.7959 22.5938 93.3489 22.7927C92.9019 22.9915 92.3835 23.091 91.7939 23.091Z" fill="#69BDFF"/>
<path d="M60.86 28.4546H63.5348L68.1855 39.7614H68.3567L73.0074 28.4546H75.6823V43H73.5852V32.4745H73.4497L69.1413 42.9787H67.4009L63.0926 32.4674H62.957V43H60.86V28.4546Z" fill="#69BDFF"/>
<path d="M83.4376 43.2202C82.3581 43.2202 81.4285 42.9906 80.6486 42.5313C79.8735 42.0673 79.2743 41.4162 78.8511 40.5782C78.4326 39.7354 78.2234 38.7482 78.2234 37.6165C78.2234 36.4991 78.4326 35.5142 78.8511 34.662C79.2743 33.8097 79.864 33.1445 80.6201 32.6662C81.3809 32.188 82.2702 31.9489 83.2878 31.9489C83.906 31.9489 84.5052 32.0507 85.0853 32.2543C85.6655 32.4579 86.1862 32.7775 86.6474 33.2131C87.1087 33.6487 87.4725 34.2145 87.7388 34.9106C88.0051 35.6018 88.1382 36.4423 88.1382 37.4319V38.1847H79.4289V36.5938H86.0483C86.0483 36.0351 85.9341 35.5403 85.7059 35.1094C85.4776 34.6738 85.1566 34.3305 84.7429 34.0796C84.334 33.8286 83.8537 33.7032 83.3021 33.7032C82.7029 33.7032 82.1798 33.85 81.7328 34.1435C81.2906 34.4323 80.9482 34.8111 80.7057 35.2799C80.4679 35.7439 80.349 36.2482 80.349 36.7927V38.0356C80.349 38.7647 80.4774 39.385 80.7342 39.8964C80.9957 40.4077 81.3595 40.7983 81.8255 41.0682C82.2916 41.3334 82.836 41.466 83.459 41.466C83.8632 41.466 84.2317 41.4091 84.5646 41.2955C84.8975 41.1771 85.1852 41.0019 85.4277 40.7699C85.6702 40.5379 85.8557 40.2515 85.9841 39.9106L88.0027 40.2728C87.841 40.8646 87.5509 41.3831 87.1325 41.8282C86.7188 42.2685 86.1981 42.6118 85.5704 42.858C84.9474 43.0995 84.2365 43.2202 83.4376 43.2202Z" fill="#69BDFF"/>
<path d="M90.6758 43V28.4546H92.8085V33.8594H92.9369C93.0606 33.6321 93.2389 33.3694 93.4719 33.0711C93.7049 32.7728 94.0283 32.5124 94.442 32.2898C94.8557 32.0625 95.4026 31.9489 96.0826 31.9489C96.9671 31.9489 97.7564 32.1714 98.4507 32.6165C99.145 33.0616 99.6895 33.7032 100.084 34.5412C100.484 35.3793 100.683 36.3878 100.683 37.5668C100.683 38.7458 100.486 39.7567 100.091 40.5995C99.6966 41.4375 99.1545 42.0839 98.465 42.5384C97.7755 42.9882 96.9885 43.2131 96.104 43.2131C95.4382 43.2131 94.8937 43.1018 94.4705 42.8793C94.052 42.6568 93.7239 42.3964 93.4862 42.0981C93.2484 41.7998 93.0653 41.5346 92.9369 41.3026H92.7586V43H90.6758ZM92.7657 37.5455C92.7657 38.3125 92.8775 38.9849 93.101 39.5625C93.3245 40.1402 93.6479 40.5924 94.0711 40.9191C94.4943 41.241 95.0126 41.402 95.6261 41.402C96.2633 41.402 96.7959 41.2339 97.2238 40.8978C97.6518 40.5569 97.9752 40.0952 98.1939 39.5128C98.4174 38.9304 98.5292 38.2747 98.5292 37.5455C98.5292 36.8258 98.4198 36.1795 98.2011 35.6066C97.9871 35.0337 97.6637 34.5815 97.231 34.25C96.803 33.9186 96.268 33.7529 95.6261 33.7529C95.0079 33.7529 94.4848 33.9115 94.0568 34.2287C93.6336 34.546 93.3126 34.9887 93.0939 35.5569C92.8751 36.125 92.7657 36.7879 92.7657 37.5455Z" fill="#69BDFF"/>
<path d="M107.8 43.2202C106.721 43.2202 105.791 42.9906 105.011 42.5313C104.236 42.0673 103.637 41.4162 103.214 40.5782C102.795 39.7354 102.586 38.7482 102.586 37.6165C102.586 36.4991 102.795 35.5142 103.214 34.662C103.637 33.8097 104.227 33.1445 104.983 32.6662C105.744 32.188 106.633 31.9489 107.65 31.9489C108.269 31.9489 108.868 32.0507 109.448 32.2543C110.028 32.4579 110.549 32.7775 111.01 33.2131C111.471 33.6487 111.835 34.2145 112.101 34.9106C112.368 35.6018 112.501 36.4423 112.501 37.4319V38.1847H103.792V36.5938H110.411C110.411 36.0351 110.297 35.5403 110.069 35.1094C109.84 34.6738 109.519 34.3305 109.106 34.0796C108.697 33.8286 108.216 33.7032 107.665 33.7032C107.066 33.7032 106.542 33.85 106.095 34.1435C105.653 34.4323 105.311 34.8111 105.068 35.2799C104.831 35.7439 104.712 36.2482 104.712 36.7927V38.0356C104.712 38.7647 104.84 39.385 105.097 39.8964C105.358 40.4077 105.722 40.7983 106.188 41.0682C106.654 41.3334 107.199 41.466 107.822 41.466C108.226 41.466 108.594 41.4091 108.927 41.2955C109.26 41.1771 109.548 41.0019 109.79 40.7699C110.033 40.5379 110.218 40.2515 110.347 39.9106L112.365 40.2728C112.204 40.8646 111.914 41.3831 111.495 41.8282C111.081 42.2685 110.561 42.6118 109.933 42.858C109.31 43.0995 108.599 43.2202 107.8 43.2202Z" fill="#69BDFF"/>
<path d="M117 28.4546V43H114.867V28.4546H117Z" fill="#69BDFF"/>
<path fill-rule="evenodd" clip-rule="evenodd" d="M50.7183 48V0H51.7226V48H50.7183Z" fill="#69BDFF"/>
<g clip-path="url(#clip0_39_368)">
<path d="M14.9206 2.19955C13.1167 2.22617 11.7554 2.27943 11.5341 2.32602C9.89788 2.66549 7.89952 3.77045 6.80647 4.94196C5.63294 6.20001 4.77458 7.8042 4.38564 9.48825C4.29176 9.88763 4.27164 10.6797 4.25153 15.1461C4.23141 18.0017 4.20458 20.398 4.19117 20.4712C4.17105 20.5777 4.04364 20.6443 3.67482 20.7508C2.37388 21.1369 1.07964 22.2884 0.509644 23.5797C0.00670339 24.7113 0.00670339 26.4153 0.509644 27.5469C1.07294 28.8183 2.25317 29.8833 3.61447 30.3626L4.12411 30.5423L4.16435 30.9616C4.19117 31.1946 4.21129 32.9718 4.218 34.9155C4.23141 39.0624 4.29176 40.6599 4.446 41.026C4.65388 41.5119 5.41835 42.324 5.87435 42.5304C6.19623 42.6835 6.20294 42.6968 6.26329 43.6153C6.31023 44.2544 6.45776 44.5739 6.78635 44.7403C7.09482 44.8934 7.36976 44.9 7.67152 44.7536C8.00682 44.5938 8.17447 44.2277 8.23482 43.5022L8.28176 42.9031L21.6265 42.8831L34.9779 42.8698L35.0516 43.5554C35.0919 43.9348 35.1723 44.3409 35.2327 44.4607C35.4406 44.8534 36.0039 44.9732 36.48 44.7336C36.8555 44.5472 36.9628 44.2876 37.003 43.5355C37.0366 42.8166 37.1036 42.6635 37.4658 42.4971C37.801 42.344 38.4783 41.6451 38.7063 41.2257C38.8405 40.9861 38.9075 40.7331 38.9545 40.3005C38.9947 39.9743 39.0416 37.6579 39.0685 35.1485C39.0886 32.639 39.1221 30.5689 39.1355 30.5489C39.1489 30.5223 39.2965 30.4691 39.4708 30.4291C40.1749 30.2494 41.1272 29.657 41.7508 29.018C42.4952 28.2325 42.9176 27.3739 43.092 26.2889C43.273 25.1573 43.0517 24.0324 42.4415 23.0139C41.8112 21.9556 40.6577 21.0503 39.4976 20.7042L39.1288 20.5977L39.0886 15.9382C39.0416 11.1656 38.988 10.0407 38.7533 8.97571C38.2369 6.63933 36.3325 4.32958 33.9385 3.13144C33.63 2.97834 33.0198 2.73871 32.5906 2.59227C31.9401 2.37927 31.6518 2.31936 30.9678 2.26611C29.8546 2.18623 18.6692 2.13298 14.9206 2.19955ZM30.6459 4.25636C31.6786 4.32958 32.3156 4.50264 33.1136 4.92865C34.1262 5.47447 35.0986 6.30651 35.7088 7.15187C36.0977 7.69769 36.6476 8.80265 36.775 9.28856C36.9695 10.0341 37.0165 11.1257 37.0567 15.8451L37.1036 20.5578L36.8086 20.6376C36.2386 20.7841 35.9033 20.9372 35.3333 21.3166C34.1262 22.1153 33.402 23.187 33.0868 24.6581C33.0265 24.9243 32.9661 25.6898 32.9393 26.4087L32.8923 27.6867L32.3559 27.3539C31.1019 26.5884 31.1823 26.5951 21.66 26.5951C12.2382 26.5951 12.4059 26.5884 11.1116 27.2407C10.7428 27.4205 10.4276 27.5469 10.4075 27.527C10.3807 27.5003 10.3405 26.9545 10.3136 26.3088C10.2533 24.6381 10.0186 23.6929 9.44858 22.8009C8.85176 21.8624 7.59776 20.9305 6.6187 20.6776L6.27 20.591L6.24988 16.0714C6.22976 11.3054 6.27 10.1872 6.51141 9.28856C6.96741 7.55125 8.50976 5.74072 10.3002 4.84212C10.7629 4.60915 11.6213 4.34955 12.0907 4.28964C13.3983 4.1432 28.6274 4.10992 30.6459 4.25636ZM6.12247 22.6612C6.59188 22.7677 6.92047 22.994 7.44352 23.5465C7.97329 24.1056 8.05376 24.2787 8.12082 24.9909C8.15435 25.3237 8.20129 29.0313 8.22141 33.2314L8.26835 40.8729H7.73858C7.04117 40.8729 6.78635 40.7931 6.48458 40.4869L6.23647 40.2339L6.22305 36.3799C6.21635 34.2565 6.19623 31.7937 6.16941 30.9084C6.13588 29.4307 6.11576 29.2776 5.99505 29.1112C5.80058 28.8516 5.49211 28.7118 4.74105 28.5653C4.37223 28.4921 3.94306 28.3523 3.74188 28.2458C2.60188 27.6335 1.95141 26.3954 2.14588 25.1972C2.33364 24.0124 3.04447 23.0938 4.07717 22.6944C4.46611 22.548 5.54576 22.528 6.12247 22.6612ZM39.0349 22.6545C39.4909 22.7677 39.8933 23.0339 40.3895 23.5664C40.8589 24.0656 40.9461 24.2321 41.0333 24.7712C41.1875 25.7031 41.0869 26.6084 40.765 27.1009C40.5169 27.4937 39.8732 28.0994 39.5312 28.2791C39.3836 28.3523 38.9612 28.4722 38.5923 28.552C37.7474 28.7318 37.3719 28.8649 37.278 29.0313C37.1506 29.2709 37.0902 30.9949 37.0433 35.7276L36.9963 40.4003L36.7415 40.5801C36.4263 40.7931 36.1112 40.8663 35.4942 40.8729H35.0047L35.0114 34.1633C35.0114 30.4757 35.0382 26.8147 35.065 26.0293C35.1187 24.6448 35.1254 24.5848 35.3065 24.2387C35.6418 23.5731 36.3995 22.9008 37.0701 22.6612C37.392 22.548 38.5521 22.548 39.0349 22.6545ZM29.4723 28.6852C30.6995 28.7517 31.0348 28.8449 31.6182 29.2842C32.0072 29.5771 32.3693 30.063 32.718 30.7353L32.9259 31.148V36.0138V40.8729H21.6265H10.3271L10.3405 37.8643C10.3539 34.0901 10.4276 31.361 10.5215 30.9017C10.6355 30.3559 10.7831 30.0963 11.2994 29.6037C12.0907 28.8383 12.312 28.7717 14.3506 28.6985C16.2953 28.6252 28.1848 28.6186 29.4723 28.6852Z" fill="#69BDFF"/>
<path d="M15.1285 10.3734C14.6792 10.5265 14.5182 10.7528 14.5182 11.2387C14.5182 11.718 14.6993 11.9909 15.1218 12.1506C15.5107 12.3037 15.8326 12.2372 16.141 11.9576C16.3489 11.7712 16.3892 11.6914 16.4093 11.3785C16.4696 10.5931 15.8661 10.1205 15.1285 10.3734Z" fill="#69BDFF"/>
<path d="M27.5612 10.3336C27.0381 10.4801 26.7699 10.8661 26.8436 11.392C26.8906 11.7514 27.1119 12.0243 27.4606 12.1508C27.8764 12.3105 28.1915 12.2373 28.5134 11.9178C28.7481 11.6915 28.7682 11.6383 28.7682 11.3121C28.7682 10.5999 28.2116 10.1539 27.5612 10.3336Z" fill="#69BDFF"/>
<path d="M15.0279 18.5608C14.5316 18.8071 14.364 19.3463 14.6121 19.8655C14.7999 20.2382 15.2291 20.4778 15.5912 20.4113C16.2953 20.2782 16.6842 19.3529 16.2483 18.8337C15.9198 18.4543 15.4503 18.3411 15.0279 18.5608Z" fill="#69BDFF"/>
<path d="M27.4606 18.5208C26.6827 18.8003 26.6022 19.7389 27.3063 20.2647C27.7154 20.5576 28.4262 20.3712 28.6676 19.9053C28.8889 19.4793 28.7347 18.8602 28.339 18.6073C28.1245 18.4675 27.7154 18.4276 27.4606 18.5208Z" fill="#69BDFF"/>
</g>
<defs>
<clipPath id="clip0_39_368">
<rect width="43.1859" height="43" fill="white" transform="translate(0 2)"/>
</clipPath>
</defs>
</svg>
