<svg width="60" height="60" viewBox="0 0 60 60" fill="none" xmlns="http://www.w3.org/2000/svg">
<path d="M54.8009 46.0816L59.9993 43.1442V6.71094L50.252 11.8862V18.0393L54.7288 15.5224L54.8009 46.0816Z" fill="#7EC7FF"/>
<path d="M42.1659 52.587L47.3643 49.79V0L30.036 9.79033L12.4766 0V10.0695L17.7302 12.8674L17.6169 8.671L29.9199 15.5066L42.1659 8.671V52.587Z" fill="#7EC7FF"/>
<path d="M12.4769 23.0938L17.7614 26.0131V43.356L12.418 40.4185L12.4769 23.0938Z" fill="#7EC7FF"/>
<path d="M38.9893 24.333V18.507L29.9205 23.5064L0 6.71094V43.0744L29.7473 59.9976L35.2349 57.0602L5.05428 40.1378V15.3819L29.8915 29.3686L38.9893 24.333Z" fill="#7EC7FF"/>
</svg>
