<svg width="60" height="569" viewBox="0 0 60 569" fill="none" xmlns="http://www.w3.org/2000/svg">
<path opacity="0.2" d="M29.5366 569.001L29.5366 6.10352e-05" stroke="#7EC7FF" stroke-width="4"/>
<circle opacity="0.3" cx="30" cy="285" r="30" fill="white"/>
<path d="M7.5 285.866C6.83333 285.481 6.83333 284.519 7.5 284.134L22.5 275.474C23.1667 275.089 24 275.57 24 276.34V293.66C24 294.43 23.1667 294.911 22.5 294.526L7.5 285.866Z" fill="#7EC7FF"/>
<path d="M52.5 285.866C53.1667 285.481 53.1667 284.519 52.5 284.134L37.5 275.474C36.8333 275.089 36 275.57 36 276.34V293.66C36 294.43 36.8333 294.911 37.5 294.526L52.5 285.866Z" fill="#7EC7FF"/>
</svg>
